# xmcd
#
# Track frame offsets: 
#        150
#        24350
#        47138
#        70104
#        86518
#        97404
#        128327
#        169613
#
# Disc length: 2574 seconds
#
# Revision: 0
# Processed by: cddbd v1.5.2PL0 Copyright (c) Steve Scherf et al.
# Submitted via: ExactAudioCopy v1.3
#
DISCID=5e0a0c08
DTITLE=Frank McComb - Live At The Bitter End
DYEAR=2013
DGENRE=Blues
TTITLE0=Introduction By Jodine Dorce - Love, Love, Love
TTITLE1=You Were Meant For Me
TTITLE2=Someday We'll All Be Free
TTITLE3=Flying Easy
TTITLE4=Acknowledgements
TTITLE5=We'll Carry Your Name On 
TTITLE6=A Song For All
TTITLE7=Little Ghetto Boy
EXTD=
EXTT0=
EXTT1=
EXTT2=
EXTT3=
EXTT4=
EXTT5=
EXTT6=
EXTT7=
PLAYORDER=
